{
    "asset" : {
        "generator" : "Khronos glTF Blender I/O v1.3.48",
        "version" : "2.0"
    },
    "scene" : 0,
    "scenes" : [
        {
            "name" : "Scene",
            "nodes" : [
                0,
                1,
                8
            ]
        }
    ],
    "nodes" : [
        {
            "name" : "Light",
            "rotation" : [
                0.16907575726509094,
                0.7558803558349609,
                -0.27217137813568115,
                0.570947527885437
            ],
            "translation" : [
                4.076245307922363,
                5.903861999511719,
                -1.0054539442062378
            ]
        },
        {
            "name" : "Camera",
            "rotation" : [
                0.483536034822464,
                0.33687159419059753,
                -0.20870360732078552,
                0.7804827094078064
            ],
            "translation" : [
                7.358891487121582,
                4.958309173583984,
                6.925790786743164
            ]
        },
        {
            "mesh" : 0,
            "name" : "wheel",
            "rotation" : [
                0,
                -0.7071068286895752,
                0,
                0.7071067094802856
            ],
            "translation" : [
                -74.59546661376953,
                -164.046630859375,
                -28.783334732055664
            ]
        },
        {
            "mesh" : 1,
            "name" : "wheel_2",
            "rotation" : [
                0,
                -0.7071068286895752,
                0,
                0.7071067094802856
            ],
            "translation" : [
                -107.79879760742188,
                -164.046630859375,
                -28.783334732055664
            ]
        },
        {
            "mesh" : 2,
            "name" : "wheel_3",
            "rotation" : [
                0.7071067094802856,
                0,
                0.7071068286895752,
                5.338507236274381e-08
            ],
            "translation" : [
                73.58973693847656,
                -164.046630859375,
                -28.783334732055664
            ]
        },
        {
            "mesh" : 3,
            "name" : "wheel_4",
            "rotation" : [
                0.7071067094802856,
                0,
                0.7071068286895752,
                5.338507236274381e-08
            ],
            "translation" : [
                107.58240509033203,
                -164.046630859375,
                -28.783334732055664
            ]
        },
        {
            "mesh" : 4,
            "name" : "wheel_5",
            "rotation" : [
                0,
                -0.7071068286895752,
                0,
                0.7071067094802856
            ],
            "translation" : [
                -107.79879760742188,
                169.40606689453125,
                -28.783334732055664
            ]
        },
        {
            "mesh" : 5,
            "name" : "wheel_6",
            "rotation" : [
                0.7071067094802856,
                0,
                0.7071068286895752,
                5.338507236274381e-08
            ],
            "translation" : [
                107.58240509033203,
                169.40606689453125,
                -28.783334732055664
            ]
        },
        {
            "children" : [
                2,
                3,
                4,
                5,
                6,
                7
            ],
            "mesh" : 6,
            "name" : "bus",
            "rotation" : [
                0.7071068286895752,
                0,
                0,
                0.7071067094802856
            ],
            "scale" : [
                0.009999999776482582,
                0.009999999776482582,
                0.009999999776482582
            ]
        }
    ],
    "materials" : [
        {
            "doubleSided" : true,
            "emissiveFactor" : [
                0,
                0,
                0
            ],
            "name" : "wheelTexture",
            "pbrMetallicRoughness" : {
                "baseColorTexture" : {
                    "index" : 0,
                    "texCoord" : 0
                },
                "metallicFactor" : 0,
                "roughnessFactor" : 0.5
            }
        },
        {
            "doubleSided" : true,
            "emissiveFactor" : [
                0,
                0,
                0
            ],
            "name" : "Material.001",
            "pbrMetallicRoughness" : {
                "baseColorTexture" : {
                    "index" : 1,
                    "texCoord" : 0
                },
                "metallicFactor" : 0,
                "roughnessFactor" : 0.5
            }
        }
    ],
    "meshes" : [
        {
            "name" : "wheel",
            "primitives" : [
                {
                    "attributes" : {
                        "POSITION" : 0,
                        "NORMAL" : 1,
                        "TEXCOORD_0" : 2
                    },
                    "indices" : 3,
                    "material" : 0
                }
            ]
        },
        {
            "name" : "wheel_2",
            "primitives" : [
                {
                    "attributes" : {
                        "POSITION" : 4,
                        "NORMAL" : 5,
                        "TEXCOORD_0" : 6
                    },
                    "indices" : 3,
                    "material" : 0
                }
            ]
        },
        {
            "name" : "wheel_3",
            "primitives" : [
                {
                    "attributes" : {
                        "POSITION" : 7,
                        "NORMAL" : 8,
                        "TEXCOORD_0" : 9
                    },
                    "indices" : 3,
                    "material" : 0
                }
            ]
        },
        {
            "name" : "wheel_4",
            "primitives" : [
                {
                    "attributes" : {
                        "POSITION" : 10,
                        "NORMAL" : 11,
                        "TEXCOORD_0" : 12
                    },
                    "indices" : 3,
                    "material" : 0
                }
            ]
        },
        {
            "name" : "wheel_5",
            "primitives" : [
                {
                    "attributes" : {
                        "POSITION" : 13,
                        "NORMAL" : 14,
                        "TEXCOORD_0" : 15
                    },
                    "indices" : 3,
                    "material" : 0
                }
            ]
        },
        {
            "name" : "wheel_6",
            "primitives" : [
                {
                    "attributes" : {
                        "POSITION" : 16,
                        "NORMAL" : 17,
                        "TEXCOORD_0" : 18
                    },
                    "indices" : 3,
                    "material" : 0
                }
            ]
        },
        {
            "name" : "bus",
            "primitives" : [
                {
                    "attributes" : {
                        "POSITION" : 19,
                        "NORMAL" : 20,
                        "TEXCOORD_0" : 21
                    },
                    "indices" : 22,
                    "material" : 1
                }
            ]
        }
    ],
    "textures" : [
        {
            "source" : 0
        },
        {
            "source" : 0
        }
    ],
    "images" : [
        {
            "bufferView" : 4,
            "mimeType" : "image/png",
            "name" : "bus01"
        }
    ],
    "accessors" : [
        {
            "bufferView" : 0,
            "componentType" : 5126,
            "count" : 122,
            "max" : [
                28.783334732055664,
                28.783334732055664,
                15.317280769348145
            ],
            "min" : [
                -28.783334732055664,
                -28.783334732055664,
                -15.317280769348145
            ],
            "type" : "VEC3"
        },
        {
            "bufferView" : 1,
            "componentType" : 5126,
            "count" : 122,
            "type" : "VEC3"
        },
        {
            "bufferView" : 2,
            "componentType" : 5126,
            "count" : 122,
            "type" : "VEC2"
        },
        {
            "bufferView" : 3,
            "componentType" : 5123,
            "count" : 288,
            "type" : "SCALAR"
        },
        {
            "bufferView" : 5,
            "componentType" : 5126,
            "count" : 122,
            "max" : [
                28.783334732055664,
                28.783334732055664,
                15.317280769348145
            ],
            "min" : [
                -28.783334732055664,
                -28.783334732055664,
                -15.317280769348145
            ],
            "type" : "VEC3"
        },
        {
            "bufferView" : 6,
            "componentType" : 5126,
            "count" : 122,
            "type" : "VEC3"
        },
        {
            "bufferView" : 7,
            "componentType" : 5126,
            "count" : 122,
            "type" : "VEC2"
        },
        {
            "bufferView" : 8,
            "componentType" : 5126,
            "count" : 122,
            "max" : [
                28.783334732055664,
                28.783334732055664,
                15.317280769348145
            ],
            "min" : [
                -28.783334732055664,
                -28.783334732055664,
                -15.317280769348145
            ],
            "type" : "VEC3"
        },
        {
            "bufferView" : 9,
            "componentType" : 5126,
            "count" : 122,
            "type" : "VEC3"
        },
        {
            "bufferView" : 10,
            "componentType" : 5126,
            "count" : 122,
            "type" : "VEC2"
        },
        {
            "bufferView" : 11,
            "componentType" : 5126,
            "count" : 122,
            "max" : [
                28.783334732055664,
                28.783334732055664,
                15.317280769348145
            ],
            "min" : [
                -28.783334732055664,
                -28.783334732055664,
                -15.317280769348145
            ],
            "type" : "VEC3"
        },
        {
            "bufferView" : 12,
            "componentType" : 5126,
            "count" : 122,
            "type" : "VEC3"
        },
        {
            "bufferView" : 13,
            "componentType" : 5126,
            "count" : 122,
            "type" : "VEC2"
        },
        {
            "bufferView" : 14,
            "componentType" : 5126,
            "count" : 122,
            "max" : [
                28.783334732055664,
                28.783334732055664,
                15.317280769348145
            ],
            "min" : [
                -28.783334732055664,
                -28.783334732055664,
                -15.317280769348145
            ],
            "type" : "VEC3"
        },
        {
            "bufferView" : 15,
            "componentType" : 5126,
            "count" : 122,
            "type" : "VEC3"
        },
        {
            "bufferView" : 16,
            "componentType" : 5126,
            "count" : 122,
            "type" : "VEC2"
        },
        {
            "bufferView" : 17,
            "componentType" : 5126,
            "count" : 122,
            "max" : [
                28.783334732055664,
                28.783334732055664,
                15.317280769348145
            ],
            "min" : [
                -28.783334732055664,
                -28.783334732055664,
                -15.317280769348145
            ],
            "type" : "VEC3"
        },
        {
            "bufferView" : 18,
            "componentType" : 5126,
            "count" : 122,
            "type" : "VEC3"
        },
        {
            "bufferView" : 19,
            "componentType" : 5126,
            "count" : 122,
            "type" : "VEC2"
        },
        {
            "bufferView" : 20,
            "componentType" : 5126,
            "count" : 300,
            "max" : [
                126.6426773071289,
                301.1490478515625,
                -28.312623977661133
            ],
            "min" : [
                -126.6426773071289,
                -294.75079345703125,
                -326.7242431640625
            ],
            "type" : "VEC3"
        },
        {
            "bufferView" : 21,
            "componentType" : 5126,
            "count" : 300,
            "type" : "VEC3"
        },
        {
            "bufferView" : 22,
            "componentType" : 5126,
            "count" : 300,
            "type" : "VEC2"
        },
        {
            "bufferView" : 23,
            "componentType" : 5123,
            "count" : 564,
            "type" : "SCALAR"
        }
    ],
    "bufferViews" : [
        {
            "buffer" : 0,
            "byteLength" : 1464,
            "byteOffset" : 0
        },
        {
            "buffer" : 0,
            "byteLength" : 1464,
            "byteOffset" : 1464
        },
        {
            "buffer" : 0,
            "byteLength" : 976,
            "byteOffset" : 2928
        },
        {
            "buffer" : 0,
            "byteLength" : 576,
            "byteOffset" : 3904
        },
        {
            "buffer" : 0,
            "byteLength" : 184494,
            "byteOffset" : 4480
        },
        {
            "buffer" : 0,
            "byteLength" : 1464,
            "byteOffset" : 188976
        },
        {
            "buffer" : 0,
            "byteLength" : 1464,
            "byteOffset" : 190440
        },
        {
            "buffer" : 0,
            "byteLength" : 976,
            "byteOffset" : 191904
        },
        {
            "buffer" : 0,
            "byteLength" : 1464,
            "byteOffset" : 192880
        },
        {
            "buffer" : 0,
            "byteLength" : 1464,
            "byteOffset" : 194344
        },
        {
            "buffer" : 0,
            "byteLength" : 976,
            "byteOffset" : 195808
        },
        {
            "buffer" : 0,
            "byteLength" : 1464,
            "byteOffset" : 196784
        },
        {
            "buffer" : 0,
            "byteLength" : 1464,
            "byteOffset" : 198248
        },
        {
            "buffer" : 0,
            "byteLength" : 976,
            "byteOffset" : 199712
        },
        {
            "buffer" : 0,
            "byteLength" : 1464,
            "byteOffset" : 200688
        },
        {
            "buffer" : 0,
            "byteLength" : 1464,
            "byteOffset" : 202152
        },
        {
            "buffer" : 0,
            "byteLength" : 976,
            "byteOffset" : 203616
        },
        {
            "buffer" : 0,
            "byteLength" : 1464,
            "byteOffset" : 204592
        },
        {
            "buffer" : 0,
            "byteLength" : 1464,
            "byteOffset" : 206056
        },
        {
            "buffer" : 0,
            "byteLength" : 976,
            "byteOffset" : 207520
        },
        {
            "buffer" : 0,
            "byteLength" : 3600,
            "byteOffset" : 208496
        },
        {
            "buffer" : 0,
            "byteLength" : 3600,
            "byteOffset" : 212096
        },
        {
            "buffer" : 0,
            "byteLength" : 2400,
            "byteOffset" : 215696
        },
        {
            "buffer" : 0,
            "byteLength" : 1128,
            "byteOffset" : 218096
        }
    ],
    "buffers" : [
        {
            "byteLength" : 219224,
            "uri" : "data:application/octet-stream;base64,"
        }
    ]
}
