{
    "asset" : {
        "generator" : "Khronos glTF Blender I/O v1.3.48",
        "version" : "2.0"
    },
    "scene" : 0,
    "scenes" : [
        {
            "name" : "Scene",
            "nodes" : [
                0,
                1,
                6
            ]
        }
    ],
    "nodes" : [
        {
            "name" : "Light",
            "rotation" : [
                0.16907575726509094,
                0.7558803558349609,
                -0.27217137813568115,
                0.570947527885437
            ],
            "translation" : [
                4.076245307922363,
                5.903861999511719,
                -1.0054539442062378
            ]
        },
        {
            "name" : "Camera",
            "rotation" : [
                0.483536034822464,
                0.33687159419059753,
                -0.20870360732078552,
                0.7804827094078064
            ],
            "translation" : [
                7.358891487121582,
                4.958309173583984,
                6.925790786743164
            ]
        },
        {
            "mesh" : 0,
            "name" : "wheel",
            "rotation" : [
                0.7071067094802856,
                0,
                0.7071068286895752,
                -3.0908616110991716e-08
            ],
            "translation" : [
                83.69866943359375,
                -100,
                -29.59654426574707
            ]
        },
        {
            "mesh" : 1,
            "name" : "wheel_2",
            "rotation" : [
                0.7071067094802856,
                0,
                0.7071068286895752,
                -3.0908616110991716e-08
            ],
            "translation" : [
                83.69866943359375,
                100.31035614013672,
                -29.59654426574707
            ]
        },
        {
            "mesh" : 2,
            "name" : "wheel_3",
            "rotation" : [
                0,
                -0.7071068286895752,
                0,
                0.7071067094802856
            ],
            "translation" : [
                -81.93560028076172,
                100.31035614013672,
                -29.59654426574707
            ]
        },
        {
            "mesh" : 3,
            "name" : "wheel_4",
            "rotation" : [
                0,
                -0.7071068286895752,
                0,
                0.7071067094802856
            ],
            "translation" : [
                -81.93560028076172,
                -100,
                -29.59654426574707
            ]
        },
        {
            "children" : [
                2,
                3,
                4,
                5
            ],
            "mesh" : 4,
            "name" : "car01",
            "rotation" : [
                0.7071068286895752,
                0,
                0,
                0.7071067094802856
            ],
            "scale" : [
                0.009999999776482582,
                0.009999999776482582,
                0.009999999776482582
            ]
        }
    ],
    "materials" : [
        {
            "doubleSided" : true,
            "emissiveFactor" : [
                0,
                0,
                0
            ],
            "name" : "Material.004",
            "pbrMetallicRoughness" : {
                "baseColorTexture" : {
                    "index" : 0,
                    "texCoord" : 0
                },
                "metallicFactor" : 0,
                "roughnessFactor" : 0.5
            }
        },
        {
            "doubleSided" : true,
            "emissiveFactor" : [
                0,
                0,
                0
            ],
            "name" : "Material.003",
            "pbrMetallicRoughness" : {
                "baseColorTexture" : {
                    "index" : 1,
                    "texCoord" : 0
                },
                "metallicFactor" : 0,
                "roughnessFactor" : 0.5
            }
        },
        {
            "doubleSided" : true,
            "emissiveFactor" : [
                0,
                0,
                0
            ],
            "name" : "Material.006",
            "pbrMetallicRoughness" : {
                "baseColorTexture" : {
                    "index" : 2,
                    "texCoord" : 0
                },
                "metallicFactor" : 0,
                "roughnessFactor" : 0.5
            }
        },
        {
            "doubleSided" : true,
            "emissiveFactor" : [
                0,
                0,
                0
            ],
            "name" : "Material.005",
            "pbrMetallicRoughness" : {
                "baseColorTexture" : {
                    "index" : 3,
                    "texCoord" : 0
                },
                "metallicFactor" : 0,
                "roughnessFactor" : 0.5
            }
        },
        {
            "doubleSided" : true,
            "emissiveFactor" : [
                0,
                0,
                0
            ],
            "name" : "Material.002",
            "pbrMetallicRoughness" : {
                "baseColorTexture" : {
                    "index" : 4,
                    "texCoord" : 0
                },
                "metallicFactor" : 0,
                "roughnessFactor" : 0.5
            }
        }
    ],
    "meshes" : [
        {
            "name" : "wheelMesh",
            "primitives" : [
                {
                    "attributes" : {
                        "POSITION" : 0,
                        "NORMAL" : 1,
                        "TEXCOORD_0" : 2
                    },
                    "indices" : 3,
                    "material" : 0
                }
            ]
        },
        {
            "name" : "wheel_2Mesh",
            "primitives" : [
                {
                    "attributes" : {
                        "POSITION" : 4,
                        "NORMAL" : 5,
                        "TEXCOORD_0" : 6
                    },
                    "indices" : 3,
                    "material" : 1
                }
            ]
        },
        {
            "name" : "wheel_3Mesh",
            "primitives" : [
                {
                    "attributes" : {
                        "POSITION" : 7,
                        "NORMAL" : 8,
                        "TEXCOORD_0" : 9
                    },
                    "indices" : 3,
                    "material" : 2
                }
            ]
        },
        {
            "name" : "wheel_4Mesh",
            "primitives" : [
                {
                    "attributes" : {
                        "POSITION" : 10,
                        "NORMAL" : 11,
                        "TEXCOORD_0" : 12
                    },
                    "indices" : 3,
                    "material" : 3
                }
            ]
        },
        {
            "name" : "car01Mesh",
            "primitives" : [
                {
                    "attributes" : {
                        "POSITION" : 13,
                        "NORMAL" : 14,
                        "TEXCOORD_0" : 15
                    },
                    "indices" : 16,
                    "material" : 4
                }
            ]
        }
    ],
    "textures" : [
        {
            "source" : 0
        },
        {
            "source" : 1
        },
        {
            "source" : 1
        },
        {
            "source" : 1
        },
        {
            "source" : 1
        }
    ],
    "images" : [
        {
            "bufferView" : 4,
            "mimeType" : "image/png",
            "name" : "car01"
        },
        {
            "bufferView" : 8,
            "mimeType" : "image/png",
            "name" : "car01"
        }
    ],
    "accessors" : [
        {
            "bufferView" : 0,
            "componentType" : 5126,
            "count" : 122,
            "max" : [
                29.59654426574707,
                29.59654426574707,
                12.796904563903809
            ],
            "min" : [
                -29.59654426574707,
                -29.59654426574707,
                -12.796904563903809
            ],
            "type" : "VEC3"
        },
        {
            "bufferView" : 1,
            "componentType" : 5126,
            "count" : 122,
            "type" : "VEC3"
        },
        {
            "bufferView" : 2,
            "componentType" : 5126,
            "count" : 122,
            "type" : "VEC2"
        },
        {
            "bufferView" : 3,
            "componentType" : 5123,
            "count" : 288,
            "type" : "SCALAR"
        },
        {
            "bufferView" : 5,
            "componentType" : 5126,
            "count" : 122,
            "max" : [
                29.59654426574707,
                29.59654426574707,
                12.796904563903809
            ],
            "min" : [
                -29.59654426574707,
                -29.59654426574707,
                -12.796904563903809
            ],
            "type" : "VEC3"
        },
        {
            "bufferView" : 6,
            "componentType" : 5126,
            "count" : 122,
            "type" : "VEC3"
        },
        {
            "bufferView" : 7,
            "componentType" : 5126,
            "count" : 122,
            "type" : "VEC2"
        },
        {
            "bufferView" : 9,
            "componentType" : 5126,
            "count" : 122,
            "max" : [
                29.59654426574707,
                29.59654426574707,
                12.796904563903809
            ],
            "min" : [
                -29.59654426574707,
                -29.59654426574707,
                -12.796904563903809
            ],
            "type" : "VEC3"
        },
        {
            "bufferView" : 10,
            "componentType" : 5126,
            "count" : 122,
            "type" : "VEC3"
        },
        {
            "bufferView" : 11,
            "componentType" : 5126,
            "count" : 122,
            "type" : "VEC2"
        },
        {
            "bufferView" : 12,
            "componentType" : 5126,
            "count" : 122,
            "max" : [
                29.59654426574707,
                29.59654426574707,
                12.796904563903809
            ],
            "min" : [
                -29.59654426574707,
                -29.59654426574707,
                -12.796904563903809
            ],
            "type" : "VEC3"
        },
        {
            "bufferView" : 13,
            "componentType" : 5126,
            "count" : 122,
            "type" : "VEC3"
        },
        {
            "bufferView" : 14,
            "componentType" : 5126,
            "count" : 122,
            "type" : "VEC2"
        },
        {
            "bufferView" : 15,
            "componentType" : 5126,
            "count" : 494,
            "max" : [
                120.77547454833984,
                198.77928161621094,
                -29.59654426574707
            ],
            "min" : [
                -120.77547454833984,
                -166.3000030517578,
                -224.96946716308594
            ],
            "type" : "VEC3"
        },
        {
            "bufferView" : 16,
            "componentType" : 5126,
            "count" : 494,
            "type" : "VEC3"
        },
        {
            "bufferView" : 17,
            "componentType" : 5126,
            "count" : 494,
            "type" : "VEC2"
        },
        {
            "bufferView" : 18,
            "componentType" : 5123,
            "count" : 612,
            "type" : "SCALAR"
        }
    ],
    "bufferViews" : [
        {
            "buffer" : 0,
            "byteLength" : 1464,
            "byteOffset" : 0
        },
        {
            "buffer" : 0,
            "byteLength" : 1464,
            "byteOffset" : 1464
        },
        {
            "buffer" : 0,
            "byteLength" : 976,
            "byteOffset" : 2928
        },
        {
            "buffer" : 0,
            "byteLength" : 576,
            "byteOffset" : 3904
        },
        {
            "buffer" : 0,
            "byteLength" : 89623,
            "byteOffset" : 4480
        },
        {
            "buffer" : 0,
            "byteLength" : 1464,
            "byteOffset" : 94104
        },
        {
            "buffer" : 0,
            "byteLength" : 1464,
            "byteOffset" : 95568
        },
        {
            "buffer" : 0,
            "byteLength" : 976,
            "byteOffset" : 97032
        },
        {
            "buffer" : 0,
            "byteLength" : 121771,
            "byteOffset" : 98008
        },
        {
            "buffer" : 0,
            "byteLength" : 1464,
            "byteOffset" : 219780
        },
        {
            "buffer" : 0,
            "byteLength" : 1464,
            "byteOffset" : 221244
        },
        {
            "buffer" : 0,
            "byteLength" : 976,
            "byteOffset" : 222708
        },
        {
            "buffer" : 0,
            "byteLength" : 1464,
            "byteOffset" : 223684
        },
        {
            "buffer" : 0,
            "byteLength" : 1464,
            "byteOffset" : 225148
        },
        {
            "buffer" : 0,
            "byteLength" : 976,
            "byteOffset" : 226612
        },
        {
            "buffer" : 0,
            "byteLength" : 5928,
            "byteOffset" : 227588
        },
        {
            "buffer" : 0,
            "byteLength" : 5928,
            "byteOffset" : 233516
        },
        {
            "buffer" : 0,
            "byteLength" : 3952,
            "byteOffset" : 239444
        },
        {
            "buffer" : 0,
            "byteLength" : 1224,
            "byteOffset" : 243396
        }
    ],
    "buffers" : [
        {
            "byteLength" : 244620,
            "uri" : "data:application/octet-stream;base64,"
        }
    ]
}
